<svg xmlns="http://www.w3.org/2000/svg" 
     viewBox="-100 -525 1340 800"
     width="100%" height="100%"
     style="background-color:#FED69A;">
    
    <!--These create the outline of the graph as well as the axis titles-->
    <line x1="0" y1="0" x2="0" y2="-500" stroke="black" stroke-linecap="square"/>
    <line x1="0" y1="0" x2="1215" y2="0" stroke="black" stroke-linecap="square"/>
    <text x="607.5" y="175" text-anchor="middle" font-size="larger">Characters</text>
    <text x="-70" y="-250" writing-mode="tb" text-anchor="middle" font-size="larger">
        <tspan>Frequency of Character Reference by Percentage</tspan>
        <!--<tspan font-style="italic">War and Peace</tspan>-->
        
    <!--x-axis labels (percents 0%-100%)-->
    </text>
    <line x1="0" y1="-0" x2="-10" y2="-0" stroke="black"/>
    <line x1="0" y1="-0" x2="1215" y2="-0" stroke="silver"/>
    <text x="-20" y="-0" text-anchor="end" dominant-baseline="central">0</text>
    <line x1="0" y1="-50" x2="-10" y2="-50" stroke="black"/>
    <line x1="0" y1="-50" x2="1215" y2="-50" stroke="silver"/>
    <text x="-20" y="-50" text-anchor="end" dominant-baseline="central">10</text>
    <line x1="0" y1="-100" x2="-10" y2="-100" stroke="black"/>
    <line x1="0" y1="-100" x2="1215" y2="-100" stroke="silver"/>
    <text x="-20" y="-100" text-anchor="end" dominant-baseline="central">20</text>
    <line x1="0" y1="-150" x2="-10" y2="-150" stroke="black"/>
    <line x1="0" y1="-150" x2="1215" y2="-150" stroke="silver"/>
    <text x="-20" y="-150" text-anchor="end" dominant-baseline="central">30</text>
    <line x1="0" y1="-200" x2="-10" y2="-200" stroke="black"/>
    <line x1="0" y1="-200" x2="1215" y2="-200" stroke="silver"/>
    <text x="-20" y="-200" text-anchor="end" dominant-baseline="central">40</text>
    <line x1="0" y1="-250" x2="-10" y2="-250" stroke="black"/>
    <line x1="0" y1="-250" x2="1215" y2="-250" stroke="silver"/>
    <text x="-20" y="-250" text-anchor="end" dominant-baseline="central">50</text>
    <line x1="0" y1="-300" x2="-10" y2="-300" stroke="black"/>
    <line x1="0" y1="-300" x2="1215" y2="-300" stroke="silver"/>
    <text x="-20" y="-300" text-anchor="end" dominant-baseline="central">60</text>
    <line x1="0" y1="-350" x2="-10" y2="-350" stroke="black"/>
    <line x1="0" y1="-350" x2="1215" y2="-350" stroke="silver"/>
    <text x="-20" y="-350" text-anchor="end" dominant-baseline="central">70</text>
    <line x1="0" y1="-400" x2="-10" y2="-400" stroke="black"/>
    <line x1="0" y1="-400" x2="1215" y2="-400" stroke="silver"/>
    <text x="-20" y="-400" text-anchor="end" dominant-baseline="central">80</text>
    <line x1="0" y1="-450" x2="-10" y2="-450" stroke="black"/>
    <line x1="0" y1="-450" x2="1215" y2="-450" stroke="silver"/>
    <text x="-20" y="-450" text-anchor="end" dominant-baseline="central">90</text>
    <line x1="0" y1="-500" x2="-10" y2="-500" stroke="black"/>
    <line x1="0" y1="-500" x2="1215" y2="-500" stroke="silver"/>
    <text x="-20" y="-500" text-anchor="end" dominant-baseline="central">100</text>

   <!--bars, y-axis labels, percentages-->
   <text x="-20" y="-500" text-anchor="end" dominant-baseline="central">100</text>
   <rect x="7.5" y="-350" width="30" height="350" fill="red"/>
    <rect x="7.5" y="-305" width="30" height="305" fill="slate"/>
   <text x="22.5"
         y="5"
         text-anchor="start"
         dominant-baseline="middle"
         font-size="smaller"
         writing-mode="tb">Anatole</text>
   <text x="22.5" y="-500" text-anchor="middle">~14%</text>
   <rect x="52.5"
         y="-305.1948051948052"
         width="30"
         height="305.1948051948052"
         fill="red"/>
   <text x="67.5"
         y="5"
         text-anchor="start"
         dominant-baseline="middle"
         font-size="smaller"
         writing-mode="tb">Andrey</text>
   <text x="67.5" y="-310.1948051948052" text-anchor="middle">61%</text>
   <rect x="97.5"
         y="-259.2592592592593"
         width="30"
         height="259.2592592592593"
         fill="red"/>
   <text x="112.5"
         y="5"
         text-anchor="start"
         dominant-baseline="middle"
         font-size="smaller"
         writing-mode="tb">Balaga</text>
   <text x="112.5" y="-264.2592592592593" text-anchor="middle">52%</text>
   <rect x="142.5"
         y="-270.40816326530614"
         width="30"
         height="270.40816326530614"
         fill="red"/>
   <text x="157.5"
         y="5"
         text-anchor="start"
         dominant-baseline="middle"
         font-size="smaller"
         writing-mode="tb">Bolkonsky</text>
   <text x="157.5" y="-275.40816326530614" text-anchor="middle">54%</text>
   <rect x="187.5"
         y="-345.4545454545455"
         width="30"
         height="345.4545454545455"
         fill="red"/>
   <text x="202.5"
         y="5"
         text-anchor="start"
         dominant-baseline="middle"
         font-size="smaller"
         writing-mode="tb">Dolokhov</text>
   <text x="202.5" y="-350.4545454545455" text-anchor="middle">69%</text>
   <rect x="232.5"
         y="-148.93617021276594"
         width="30"
         height="148.93617021276594"
         fill="red"/>
   <text x="247.5"
         y="5"
         text-anchor="start"
         dominant-baseline="middle"
         font-size="smaller"
         writing-mode="tb">Hélène</text>
   <text x="247.5" y="-153.93617021276594" text-anchor="middle">30%</text>
   <rect x="277.5"
         y="-307.6923076923077"
         width="30"
         height="307.6923076923077"
         fill="red"/>
   <text x="292.5"
         y="5"
         text-anchor="start"
         dominant-baseline="middle"
         font-size="smaller"
         writing-mode="tb">Mary</text>
   <text x="292.5" y="-312.6923076923077" text-anchor="middle">62%</text>
   <rect x="322.5"
         y="-408.33333333333337"
         width="30"
         height="408.33333333333337"
         fill="red"/>
   <text x="337.5"
         y="5"
         text-anchor="start"
         dominant-baseline="middle"
         font-size="smaller"
         writing-mode="tb">Marya D</text>
   <text x="337.5" y="-413.33333333333337" text-anchor="middle">82%</text>
   <rect x="367.5"
         y="-153.0612244897959"
         width="30"
         height="153.0612244897959"
         fill="red"/>
   <text x="382.5"
         y="5"
         text-anchor="start"
         dominant-baseline="middle"
         font-size="smaller"
         writing-mode="tb">Natasha</text>
   <text x="382.5" y="-158.0612244897959" text-anchor="middle">31%</text>
   <rect x="412.5"
         y="-54.21686746987952"
         width="30"
         height="54.21686746987952"
         fill="red"/>
   <text x="427.5"
         y="5"
         text-anchor="start"
         dominant-baseline="middle"
         font-size="smaller"
         writing-mode="tb">Pierre</text>
   <text x="427.5" y="-59.21686746987952" text-anchor="middle">11%</text>
   <rect x="457.5"
         y="-154.76190476190476"
         width="30"
         height="154.76190476190476"
         fill="red"/>
    <text x="472.5"
         y="5"
         text-anchor="start"
         dominant-baseline="middle"
         font-size="smaller"
         writing-mode="tb">Sonya</text>
    <text x="472.5" y="-159.76190476190476" text-anchor="middle">31%</text>
 
</svg>