<svg xmlns="http://www.w3.org/2000/svg"
     viewBox="-100 -525 1340 800"
     width="100%"
     style="background-color:#FED69A;">
   <line x1="0" y1="-0" x2="-10" y2="-0" stroke="black"/>
   <line x1="0" y1="-0" x2="1215" y2="-0" stroke="silver"/>
   <text x="-20" y="-0" text-anchor="end" dominant-baseline="central">0</text>
   <line x1="0" y1="-50" x2="-10" y2="-50" stroke="black"/>
   <line x1="0" y1="-50" x2="1215" y2="-50" stroke="silver"/>
   <text x="-20" y="-50" text-anchor="end" dominant-baseline="central">10</text>
   <line x1="0" y1="-100" x2="-10" y2="-100" stroke="black"/>
   <line x1="0" y1="-100" x2="1215" y2="-100" stroke="silver"/>
   <text x="-20" y="-100" text-anchor="end" dominant-baseline="central">20</text>
   <line x1="0" y1="-150" x2="-10" y2="-150" stroke="black"/>
   <line x1="0" y1="-150" x2="1215" y2="-150" stroke="silver"/>
   <text x="-20" y="-150" text-anchor="end" dominant-baseline="central">30</text>
   <line x1="0" y1="-200" x2="-10" y2="-200" stroke="black"/>
   <line x1="0" y1="-200" x2="1215" y2="-200" stroke="silver"/>
   <text x="-20" y="-200" text-anchor="end" dominant-baseline="central">40</text>
   <line x1="0" y1="-250" x2="-10" y2="-250" stroke="black"/>
   <line x1="0" y1="-250" x2="1215" y2="-250" stroke="silver"/>
   <text x="-20" y="-250" text-anchor="end" dominant-baseline="central">50</text>
   <line x1="0" y1="-300" x2="-10" y2="-300" stroke="black"/>
   <line x1="0" y1="-300" x2="1215" y2="-300" stroke="silver"/>
   <text x="-20" y="-300" text-anchor="end" dominant-baseline="central">60</text>
   <line x1="0" y1="-350" x2="-10" y2="-350" stroke="black"/>
   <line x1="0" y1="-350" x2="1215" y2="-350" stroke="silver"/>
   <text x="-20" y="-350" text-anchor="end" dominant-baseline="central">70</text>
   <line x1="0" y1="-400" x2="-10" y2="-400" stroke="black"/>
   <line x1="0" y1="-400" x2="1215" y2="-400" stroke="silver"/>
   <text x="-20" y="-400" text-anchor="end" dominant-baseline="central">80</text>
   <line x1="0" y1="-450" x2="-10" y2="-450" stroke="black"/>
   <line x1="0" y1="-450" x2="1215" y2="-450" stroke="silver"/>
   <text x="-20" y="-450" text-anchor="end" dominant-baseline="central">90</text>
   <line x1="0" y1="-500" x2="-10" y2="-500" stroke="black"/>
   <line x1="0" y1="-500" x2="1215" y2="-500" stroke="silver"/>
   <text x="-20" y="-500" text-anchor="end" dominant-baseline="central">100</text>
   <rect x="7.5" y="-0" width="30" height="0" fill="red"/>
   <text x="22.5"
         y="5"
         text-anchor="start"
         dominant-baseline="middle"
         font-size="smaller"
         writing-mode="tb">Prologue</text>
   <text x="22.5" y="-5" text-anchor="middle">0%</text>
   <rect x="52.5"
         y="-305.1948051948052"
         width="30"
         height="305.1948051948052"
         fill="red"/>
   <text x="67.5"
         y="5"
         text-anchor="start"
         dominant-baseline="middle"
         font-size="smaller"
         writing-mode="tb">Pierre</text>
   <text x="67.5" y="-310.1948051948052" text-anchor="middle">61%</text>
   <rect x="97.5"
         y="-259.2592592592593"
         width="30"
         height="259.2592592592593"
         fill="red"/>
   <text x="112.5"
         y="5"
         text-anchor="start"
         dominant-baseline="middle"
         font-size="smaller"
         writing-mode="tb">Moscow</text>
   <text x="112.5" y="-264.2592592592593" text-anchor="middle">52%</text>
   <rect x="142.5"
         y="-270.40816326530614"
         width="30"
         height="270.40816326530614"
         fill="red"/>
   <text x="157.5"
         y="5"
         text-anchor="start"
         dominant-baseline="middle"
         font-size="smaller"
         writing-mode="tb">The Private and Intimate Life of the House</text>
   <text x="157.5" y="-275.40816326530614" text-anchor="middle">54%</text>
   <rect x="187.5"
         y="-345.4545454545455"
         width="30"
         height="345.4545454545455"
         fill="red"/>
   <text x="202.5"
         y="5"
         text-anchor="start"
         dominant-baseline="middle"
         font-size="smaller"
         writing-mode="tb">Natasha and Bolkonskys</text>
   <text x="202.5" y="-350.4545454545455" text-anchor="middle">69%</text>
   <rect x="232.5"
         y="-148.93617021276594"
         width="30"
         height="148.93617021276594"
         fill="red"/>
   <text x="247.5"
         y="5"
         text-anchor="start"
         dominant-baseline="middle"
         font-size="smaller"
         writing-mode="tb">No One Else</text>
   <text x="247.5" y="-153.93617021276594" text-anchor="middle">30%</text>
   <rect x="277.5"
         y="-307.6923076923077"
         width="30"
         height="307.6923076923077"
         fill="red"/>
   <text x="292.5"
         y="5"
         text-anchor="start"
         dominant-baseline="middle"
         font-size="smaller"
         writing-mode="tb">The Opera</text>
   <text x="292.5" y="-312.6923076923077" text-anchor="middle">62%</text>
   <rect x="322.5"
         y="-408.33333333333337"
         width="30"
         height="408.33333333333337"
         fill="red"/>
   <text x="337.5"
         y="5"
         text-anchor="start"
         dominant-baseline="middle"
         font-size="smaller"
         writing-mode="tb">Natasha and Anatole</text>
   <text x="337.5" y="-413.33333333333337" text-anchor="middle">82%</text>
   <rect x="367.5"
         y="-153.0612244897959"
         width="30"
         height="153.0612244897959"
         fill="red"/>
   <text x="382.5"
         y="5"
         text-anchor="start"
         dominant-baseline="middle"
         font-size="smaller"
         writing-mode="tb">The Duel</text>
   <text x="382.5" y="-158.0612244897959" text-anchor="middle">31%</text>
   <rect x="412.5"
         y="-54.21686746987952"
         width="30"
         height="54.21686746987952"
         fill="red"/>
   <text x="427.5"
         y="5"
         text-anchor="start"
         dominant-baseline="middle"
         font-size="smaller"
         writing-mode="tb">Dust and Ashes</text>
   <text x="427.5" y="-59.21686746987952" text-anchor="middle">11%</text>
   <rect x="457.5"
         y="-154.76190476190476"
         width="30"
         height="154.76190476190476"
         fill="red"/>
   <text x="472.5"
         y="5"
         text-anchor="start"
         dominant-baseline="middle"
         font-size="smaller"
         writing-mode="tb">Sunday Morning</text>
   <text x="472.5" y="-159.76190476190476" text-anchor="middle">31%</text>
   <rect x="502.5"
         y="-273.4375"
         width="30"
         height="273.4375"
         fill="red"/>
   <text x="517.5"
         y="5"
         text-anchor="start"
         dominant-baseline="middle"
         font-size="smaller"
         writing-mode="tb">Charming</text>
   <text x="517.5" y="-278.4375" text-anchor="middle">55%</text>
   <rect x="547.5"
         y="-376.54320987654324"
         width="30"
         height="376.54320987654324"
         fill="red"/>
   <text x="562.5"
         y="5"
         text-anchor="start"
         dominant-baseline="middle"
         font-size="smaller"
         writing-mode="tb">The Ball</text>
   <text x="562.5" y="-381.54320987654324" text-anchor="middle">75%</text>
   <rect x="592.5"
         y="-197.24770642201835"
         width="30"
         height="197.24770642201835"
         fill="red"/>
   <text x="607.5"
         y="5"
         text-anchor="start"
         dominant-baseline="middle"
         font-size="smaller"
         writing-mode="tb">Letters</text>
   <text x="607.5" y="-202.24770642201835" text-anchor="middle">39%</text>
   <rect x="637.5"
         y="-466.66666666666663"
         width="30"
         height="466.66666666666663"
         fill="red"/>
   <text x="652.5"
         y="5"
         text-anchor="start"
         dominant-baseline="middle"
         font-size="smaller"
         writing-mode="tb">Sonya and Natasha</text>
   <text x="652.5" y="-471.66666666666663" text-anchor="middle">93%</text>
   <rect x="682.5"
         y="-295.4545454545455"
         width="30"
         height="295.4545454545455"
         fill="red"/>
   <text x="697.5"
         y="5"
         text-anchor="start"
         dominant-baseline="middle"
         font-size="smaller"
         writing-mode="tb">Sonya Alone</text>
   <text x="697.5" y="-300.4545454545455" text-anchor="middle">59%</text>
   <rect x="727.5"
         y="-360.82474226804123"
         width="30"
         height="360.82474226804123"
         fill="red"/>
   <text x="742.5"
         y="5"
         text-anchor="start"
         dominant-baseline="middle"
         font-size="smaller"
         writing-mode="tb">Preparations</text>
   <text x="742.5" y="-365.82474226804123" text-anchor="middle">72%</text>
   <rect x="772.5"
         y="-211.53846153846155"
         width="30"
         height="211.53846153846155"
         fill="red"/>
   <text x="787.5"
         y="5"
         text-anchor="start"
         dominant-baseline="middle"
         font-size="smaller"
         writing-mode="tb">Balaga</text>
   <text x="787.5" y="-216.53846153846155" text-anchor="middle">42%</text>
   <rect x="817.5"
         y="-277.77777777777777"
         width="30"
         height="277.77777777777777"
         fill="red"/>
   <text x="832.5"
         y="5"
         text-anchor="start"
         dominant-baseline="middle"
         font-size="smaller"
         writing-mode="tb">Abduction</text>
   <text x="832.5" y="-282.77777777777777" text-anchor="middle">56%</text>
   <rect x="862.5" y="-437.5" width="30" height="437.5" fill="red"/>
   <text x="877.5"
         y="5"
         text-anchor="start"
         dominant-baseline="middle"
         font-size="smaller"
         writing-mode="tb">In My House</text>
   <text x="877.5" y="-442.5" text-anchor="middle">88%</text>
   <rect x="907.5"
         y="-228.26086956521738"
         width="30"
         height="228.26086956521738"
         fill="red"/>
   <text x="922.5"
         y="5"
         text-anchor="start"
         dominant-baseline="middle"
         font-size="smaller"
         writing-mode="tb">A Call to Pierre</text>
   <text x="922.5" y="-233.26086956521738" text-anchor="middle">46%</text>
   <rect x="952.5"
         y="-284.0909090909091"
         width="30"
         height="284.0909090909091"
         fill="red"/>
   <text x="967.5"
         y="5"
         text-anchor="start"
         dominant-baseline="middle"
         font-size="smaller"
         writing-mode="tb">Find Anatole</text>
   <text x="967.5" y="-289.0909090909091" text-anchor="middle">57%</text>
   <rect x="997.5" y="-500" width="30" height="500" fill="red"/>
   <text x="1012.5"
         y="5"
         text-anchor="start"
         dominant-baseline="middle"
         font-size="smaller"
         writing-mode="tb">Pierre and Anatole</text>
   <text x="1012.5" y="-505" text-anchor="middle">100%</text>
   <rect x="1042.5" y="-500" width="30" height="500" fill="red"/>
   <text x="1057.5"
         y="5"
         text-anchor="start"
         dominant-baseline="middle"
         font-size="smaller"
         writing-mode="tb">Natasha Very Ill</text>
   <text x="1057.5" y="-505" text-anchor="middle">100%</text>
   <rect x="1087.5"
         y="-385.71428571428567"
         width="30"
         height="385.71428571428567"
         fill="red"/>
   <text x="1102.5"
         y="5"
         text-anchor="start"
         dominant-baseline="middle"
         font-size="smaller"
         writing-mode="tb">Pierre and Andrey</text>
   <text x="1102.5" y="-390.71428571428567" text-anchor="middle">77%</text>
   <rect x="1132.5"
         y="-487.012987012987"
         width="30"
         height="487.012987012987"
         fill="red"/>
   <text x="1147.5"
         y="5"
         text-anchor="start"
         dominant-baseline="middle"
         font-size="smaller"
         writing-mode="tb">Pierre and Natasha</text>
   <text x="1147.5" y="-492.012987012987" text-anchor="middle">97%</text>
   <rect x="1177.5"
         y="-487.8048780487805"
         width="30"
         height="487.8048780487805"
         fill="red"/>
   <text x="1192.5"
         y="5"
         text-anchor="start"
         dominant-baseline="middle"
         font-size="smaller"
         writing-mode="tb">The Great Comet of 1812</text>
   <text x="1192.5" y="-492.8048780487805" text-anchor="middle">98%</text>
   <line x1="0"
         y1="0"
         x2="1215"
         y2="0"
         stroke="black"
         stroke-linecap="square"/>
   <line x1="0"
         y1="0"
         x2="0"
         y2="-500"
         stroke="black"
         stroke-linecap="square"/>
   <text x="607.5" y="175" text-anchor="middle" font-size="larger">Songs</text>
   <text x="-70"
         y="-250"
         writing-mode="tb"
         text-anchor="middle"
         font-size="larger">
      <tspan>Percentage of song lines drawn from </tspan>
      <tspan font-style="italic">War and peace</tspan>
   </text>
</svg>
