<?xml version="1.0" encoding="UTF-8"?>
<svg xmlns="http://www.w3.org/2000/svg"
     viewBox="-100 -1050 1825 1250"
     width="100%"
     height="1250">
   <line x1="0" y1="-0" x2="-10" y2="-0" stroke="black"/>
   <line x1="0" y1="-0" x2="1575" y2="-0" stroke="lightgray"/>
   <text x="-20" y="-0" text-anchor="end" dominant-baseline="central">0</text>
   <line x1="0" y1="-250" x2="-10" y2="-250" stroke="black"/>
   <line x1="0" y1="-250" x2="1575" y2="-250" stroke="lightgray"/>
   <text x="-20" y="-250" text-anchor="end" dominant-baseline="central">5</text>
   <line x1="0" y1="-500" x2="-10" y2="-500" stroke="black"/>
   <line x1="0" y1="-500" x2="1575" y2="-500" stroke="lightgray"/>
   <text x="-20" y="-500" text-anchor="end" dominant-baseline="central">10</text>
   <line x1="0" y1="-750" x2="-10" y2="-750" stroke="black"/>
   <line x1="0" y1="-750" x2="1575" y2="-750" stroke="lightgray"/>
   <text x="-20" y="-750" text-anchor="end" dominant-baseline="central">15</text>
   <line x1="0" y1="-1000" x2="-10" y2="-1000" stroke="black"/>
   <line x1="0" y1="-1000" x2="1575" y2="-1000" stroke="lightgray"/>
   <text x="-20" y="-1000" text-anchor="end" dominant-baseline="central">20</text>
   <rect x="45"
         y="-550"
         width="50"
         height="550"
         fill="#66DEDC"
         stroke="black"
         stroke-width="1"/>
   <rect x="45"
         y="-350"
         width="50"
         height="350"
         fill="red"
         stroke="black"
         stroke-width="1"/>
   <rect x="105"
         y="-50"
         width="50"
         height="50"
         fill="#B65D5D"
         stroke="black"
         stroke-width="1">
      <title>PIERRE (1)</title>
   </rect>
   <text x="100" y="20" text-anchor="middle" font-size="smaller">ANATOLE</text>
   <rect x="195"
         y="-200"
         width="50"
         height="200"
         fill="#66DEDC"
         stroke="black"
         stroke-width="1"/>
   <rect x="195"
         y="-50"
         width="50"
         height="50"
         fill="red"
         stroke="black"
         stroke-width="1"/>
   <text x="250" y="20" text-anchor="middle" font-size="smaller">BOLKONSKY</text>
   <rect x="345"
         y="-50"
         width="50"
         height="50"
         fill="#66DEDC"
         stroke="black"
         stroke-width="1"/>
   <rect x="345"
         y="-0"
         width="50"
         height="0"
         fill="red"
         stroke="black"
         stroke-width="1"/>
   <rect x="405"
         y="-150"
         width="50"
         height="150"
         fill="#F17412"
         stroke="black"
         stroke-width="1">
      <title>ANATOLE (3)</title>
   </rect>
   <text x="400" y="20" text-anchor="middle" font-size="smaller">DOLOKHOV</text>
   <rect x="495"
         y="-0"
         width="50"
         height="0"
         fill="#66DEDC"
         stroke="black"
         stroke-width="1"/>
   <rect x="495"
         y="-0"
         width="50"
         height="0"
         fill="red"
         stroke="black"
         stroke-width="1"/>
   <rect x="555"
         y="-100"
         width="50"
         height="100"
         fill="#F17412"
         stroke="black"
         stroke-width="1">
      <title>ANATOLE (2)</title>
   </rect>
   <text x="550" y="20" text-anchor="middle" font-size="smaller">HÉLÈNE</text>
   <rect x="645"
         y="-200"
         width="50"
         height="200"
         fill="#66DEDC"
         stroke="black"
         stroke-width="1"/>
   <rect x="645"
         y="-200"
         width="50"
         height="200"
         fill="red"
         stroke="black"
         stroke-width="1"/>
   <rect x="705"
         y="-150"
         width="50"
         height="150"
         fill="#065143"
         stroke="black"
         stroke-width="1">
      <title>BOLKONSKY (3)</title>
   </rect>
   <rect x="705"
         y="-200"
         width="50"
         height="50"
         fill="#8A07E4"
         stroke="black"
         stroke-width="1">
      <title>NATASHA (1)</title>
   </rect>
   <text x="700" y="20" text-anchor="middle" font-size="smaller">MARY</text>
   <rect x="795"
         y="-50"
         width="50"
         height="50"
         fill="#66DEDC"
         stroke="black"
         stroke-width="1"/>
   <rect x="795"
         y="-50"
         width="50"
         height="50"
         fill="red"
         stroke="black"
         stroke-width="1"/>
   <rect x="855"
         y="-50"
         width="50"
         height="50"
         fill="#8A07E4"
         stroke="black"
         stroke-width="1">
      <title>NATASHA (1)</title>
   </rect>
   <text x="850" y="20" text-anchor="middle" font-size="smaller">MARYA D</text>
   <rect x="945"
         y="-850"
         width="50"
         height="850"
         fill="#66DEDC"
         stroke="black"
         stroke-width="1"/>
   <rect x="945"
         y="-650"
         width="50"
         height="650"
         fill="red"
         stroke="black"
         stroke-width="1"/>
   <rect x="1005"
         y="-100"
         width="50"
         height="100"
         fill="#FABC2A"
         stroke="black"
         stroke-width="1">
      <title>ALL (2)</title>
   </rect>
   <rect x="1005"
         y="-450"
         width="50"
         height="350"
         fill="#F17412"
         stroke="black"
         stroke-width="1">
      <title>ANATOLE (7)</title>
   </rect>
   <rect x="1005"
         y="-500"
         width="50"
         height="50"
         fill=""
         stroke="black"
         stroke-width="1">
      <title>MARYA D (1)</title>
   </rect>
   <rect x="1005"
         y="-550"
         width="50"
         height="50"
         fill="#8A07E4"
         stroke="black"
         stroke-width="1">
      <title>NATASHA (1)</title>
   </rect>
   <text x="1000" y="20" text-anchor="middle" font-size="smaller">NATASHA</text>
   <rect x="1095"
         y="-550"
         width="50"
         height="550"
         fill="#66DEDC"
         stroke="black"
         stroke-width="1"/>
   <rect x="1095"
         y="-350"
         width="50"
         height="350"
         fill="red"
         stroke="black"
         stroke-width="1"/>
   <rect x="1155"
         y="-50"
         width="50"
         height="50"
         fill="#FABC2A"
         stroke="black"
         stroke-width="1">
      <title>ALL (1)</title>
   </rect>
   <rect x="1155"
         y="-100"
         width="50"
         height="50"
         fill="#6B351C"
         stroke="black"
         stroke-width="1">
      <title>ANDREY (1)</title>
   </rect>
   <rect x="1155"
         y="-350"
         width="50"
         height="250"
         fill="#8A07E4"
         stroke="black"
         stroke-width="1">
      <title>NATASHA (5)</title>
   </rect>
   <rect x="1155"
         y="-400"
         width="50"
         height="50"
         fill="#B65D5D"
         stroke="black"
         stroke-width="1">
      <title>PIERRE (1)</title>
   </rect>
   <text x="1150" y="20" text-anchor="middle" font-size="smaller">PIERRE</text>
   <rect x="1245"
         y="-0"
         width="50"
         height="0"
         fill="#66DEDC"
         stroke="black"
         stroke-width="1"/>
   <rect x="1245"
         y="-0"
         width="50"
         height="0"
         fill="red"
         stroke="black"
         stroke-width="1"/>
   <rect x="1305"
         y="-50"
         width="50"
         height="50"
         fill="#1D5413"
         stroke="black"
         stroke-width="1">
      <title>DOLOKHOV (1)</title>
   </rect>
   <rect x="1305"
         y="-100"
         width="50"
         height="50"
         fill="#02BFAB"
         stroke="black"
         stroke-width="1">
      <title>HÉLÈNE (1)</title>
   </rect>
   <text x="1300" y="20" text-anchor="middle" font-size="smaller">SERVANT</text>
   <rect x="1395"
         y="-150"
         width="50"
         height="150"
         fill="#66DEDC"
         stroke="black"
         stroke-width="1"/>
   <rect x="1395"
         y="-150"
         width="50"
         height="150"
         fill="red"
         stroke="black"
         stroke-width="1"/>
   <rect x="1455"
         y="-100"
         width="50"
         height="100"
         fill="#FABC2A"
         stroke="black"
         stroke-width="1">
      <title>ALL (2)</title>
   </rect>
   <rect x="1455"
         y="-150"
         width="50"
         height="50"
         fill="#F17412"
         stroke="black"
         stroke-width="1">
      <title>ANATOLE (1)</title>
   </rect>
   <rect x="1455"
         y="-250"
         width="50"
         height="100"
         fill=""
         stroke="black"
         stroke-width="1">
      <title>MARYA D (2)</title>
   </rect>
   <rect x="1455"
         y="-550"
         width="50"
         height="300"
         fill="#8A07E4"
         stroke="black"
         stroke-width="1">
      <title>NATASHA (6)</title>
   </rect>
   <rect x="1455"
         y="-650"
         width="50"
         height="100"
         fill="#98D2EB"
         stroke="black"
         stroke-width="1">
      <title>OPERA (2)</title>
   </rect>
   <text x="1450" y="20" text-anchor="middle" font-size="smaller">SONYA</text>
   <line x1="0"
         y1="0"
         x2="1575"
         y2="0"
         stroke="black"
         stroke-linecap="square"/>
   <line x1="0"
         y1="0"
         x2="0"
         y2="-1000"
         stroke="black"
         stroke-linecap="square"/>
   <text x="787.5" y="45" text-anchor="middle" font-size="larger">Characters who Perform Spoken Action</text>
   <text x="-60"
         y="-500"
         writing-mode="tb"
         text-anchor="middle"
         font-size="larger">Number of Instances of Spoken Action</text>
</svg>
