<?xml version="1.0" encoding="UTF-8"?>
<svg xmlns="http://www.w3.org/2000/svg"
     viewBox="-150 -525 995 800"
     width="100%"
     style="background-color:#FED69A;">
   <text x="-10" y="0" font-size="12" text-anchor="end">0.00</text>
   <line x1="0" y1="-0" x2="1295" y2="-0" stroke="silver"/>
   <text x="-20" y="-0" text-anchor="end" dominant-baseline="central"/>
   <text x="-10" y="-30" font-size="12" text-anchor="end">2.84</text>
   <line x1="0" y1="-30" x2="1295" y2="-30" stroke="silver"/>
   <text x="-20" y="-30" text-anchor="end" dominant-baseline="central"/>
   <text x="-10" y="-60" font-size="12" text-anchor="end">5.67</text>
   <line x1="0" y1="-60" x2="1295" y2="-60" stroke="silver"/>
   <text x="-20" y="-60" text-anchor="end" dominant-baseline="central"/>
   <text x="-10" y="-90" font-size="12" text-anchor="end">8.51</text>
   <line x1="0" y1="-90" x2="1295" y2="-90" stroke="silver"/>
   <text x="-20" y="-90" text-anchor="end" dominant-baseline="central"/>
   <text x="-10" y="-120" font-size="12" text-anchor="end">11.34</text>
   <line x1="0" y1="-120" x2="1295" y2="-120" stroke="silver"/>
   <text x="-20" y="-120" text-anchor="end" dominant-baseline="central"/>
   <text x="-10" y="-150" font-size="12" text-anchor="end">14.18</text>
   <line x1="0" y1="-150" x2="1295" y2="-150" stroke="silver"/>
   <text x="-20" y="-150" text-anchor="end" dominant-baseline="central"/>
   <text x="-10" y="-180" font-size="12" text-anchor="end">17.01</text>
   <line x1="0" y1="-180" x2="1295" y2="-180" stroke="silver"/>
   <text x="-20" y="-180" text-anchor="end" dominant-baseline="central"/>
   <text x="-10" y="-210" font-size="12" text-anchor="end">19.85</text>
   <line x1="0" y1="-210" x2="1295" y2="-210" stroke="silver"/>
   <text x="-20" y="-210" text-anchor="end" dominant-baseline="central"/>
   <text x="-10" y="-240" font-size="12" text-anchor="end">22.68</text>
   <line x1="0" y1="-240" x2="1295" y2="-240" stroke="silver"/>
   <text x="-20" y="-240" text-anchor="end" dominant-baseline="central"/>
   <text x="-10" y="-270" font-size="12" text-anchor="end">25.52</text>
   <line x1="0" y1="-270" x2="1295" y2="-270" stroke="silver"/>
   <text x="-20" y="-270" text-anchor="end" dominant-baseline="central"/>
   <text x="-10" y="-300" font-size="12" text-anchor="end">28.36</text>
   <line x1="0" y1="-300" x2="1295" y2="-300" stroke="silver"/>
   <text x="-20" y="-300" text-anchor="end" dominant-baseline="central"/>
   <rect x="15" y="-152" width="30" height="152" fill="blue"/>
   <text x="45" y="10" writing-mode="tb">Anatole</text>
   <rect x="45" y="-78" width="30" height="78" fill="red"/>
   <text x="30" y="-157" text-anchor="middle" font-size="12">14.37% </text>
   <text x="60" y="-83" text-anchor="middle" font-size="12">78% </text>
   <rect x="90" y="-65" width="30" height="65" fill="blue"/>
   <text x="120" y="10" writing-mode="tb">Andrey</text>
   <rect x="120" y="-53" width="30" height="53" fill="red"/>
   <text x="105" y="-70" text-anchor="middle" font-size="12">6.14% </text>
   <text x="135" y="-58" text-anchor="middle" font-size="12">53% </text>
   <rect x="165" y="-20" width="30" height="20" fill="blue"/>
   <text x="195" y="10" writing-mode="tb">Balaga</text>
   <rect x="195" y="-48" width="30" height="48" fill="red"/>
   <text x="180" y="-25" text-anchor="middle" font-size="12">1.89% </text>
   <text x="210" y="-53" text-anchor="middle" font-size="12">48% </text>
   <rect x="240" y="-47" width="30" height="47" fill="blue"/>
   <text x="270" y="10" writing-mode="tb">Bolkonsky</text>
   <rect x="270" y="-29" width="30" height="29" fill="red"/>
   <text x="255" y="-52" text-anchor="middle" font-size="12">4.44% </text>
   <text x="285" y="-34" text-anchor="middle" font-size="12">29% </text>
   <rect x="315" y="-56" width="30" height="56" fill="blue"/>
   <text x="345" y="10" writing-mode="tb">Dolokhov</text>
   <rect x="345" y="-18" width="30" height="18" fill="red"/>
   <text x="330" y="-61" text-anchor="middle" font-size="12">5.29% </text>
   <text x="360" y="-23" text-anchor="middle" font-size="12">18% </text>
   <rect x="390" y="-42" width="30" height="42" fill="blue"/>
   <text x="420" y="10" writing-mode="tb">Hélène</text>
   <rect x="420" y="-14" width="30" height="14" fill="red"/>
   <text x="405" y="-47" text-anchor="middle" font-size="12">3.97% </text>
   <text x="435" y="-19" text-anchor="middle" font-size="12">14% </text>
   <rect x="465" y="-83" width="30" height="83" fill="blue"/>
   <text x="495" y="10" writing-mode="tb">Mary</text>
   <rect x="495" y="-12" width="30" height="12" fill="red"/>
   <text x="480" y="-88" text-anchor="middle" font-size="12">7.84% </text>
   <text x="510" y="-17" text-anchor="middle" font-size="12">12% </text>
   <rect x="540" y="-70" width="30" height="70" fill="blue"/>
   <text x="570" y="10" writing-mode="tb">Marya D</text>
   <rect x="570" y="-15" width="30" height="15" fill="red"/>
   <text x="555" y="-75" text-anchor="middle" font-size="12">6.62% </text>
   <text x="585" y="-20" text-anchor="middle" font-size="12">15% </text>
   <rect x="615" y="-284" width="30" height="284" fill="blue"/>
   <text x="645" y="10" writing-mode="tb">Natasha</text>
   <rect x="645" y="-148" width="30" height="148" fill="red"/>
   <text x="630" y="-289" text-anchor="middle" font-size="12">26.84% </text>
   <text x="660" y="-153" text-anchor="middle" font-size="12">148% </text>
   <rect x="690" y="-154" width="30" height="154" fill="blue"/>
   <text x="720" y="10" writing-mode="tb">Pierre</text>
   <rect x="720" y="-57" width="30" height="57" fill="red"/>
   <text x="705" y="-159" text-anchor="middle" font-size="12">14.56% </text>
   <text x="735" y="-62" text-anchor="middle" font-size="12">57% </text>
   <rect x="765" y="-85" width="30" height="85" fill="blue"/>
   <text x="795" y="10" writing-mode="tb">Sonya</text>
   <rect x="795" y="-28" width="30" height="28" fill="red"/>
   <text x="780" y="-90" text-anchor="middle" font-size="12">8.03% </text>
   <text x="810" y="-33" text-anchor="middle" font-size="12">28% </text>
   <line x1="0"
         y1="0"
         x2="1295"
         y2="0"
         stroke="black"
         stroke-linecap="square"/>
   <line x1="0"
         y1="0"
         x2="0"
         y2="-300"
         stroke="black"
         stroke-linecap="square"/>
   <text x="647.5" y="175" text-anchor="middle" font-size="large">Characters</text>
   <text x="-80"
         y="-150"
         writing-mode="tb"
         text-anchor="middle"
         font-size="large">
      <tspan>Frequency of Character References</tspan>
   </text>
   <text x="-110"
         y="-250"
         writing-mode="tb"
         text-anchor="middle"
         font-size="large">
      <tspan>by Count</tspan>
   </text>
</svg>
