<?xml version="1.0" encoding="UTF-8"?>
<svg xmlns="http://www.w3.org/2000/svg"
     height="1150"
     viewBox="-100 -100 4100 100"
     width="100%">
   <line x1="0" y1="-100" x2="-10" y2="-100" stroke="black"/>
   <line x1="0" y1="-100" x2="4050" y2="-100" stroke="lightgray"/>
   <text x="-20" y="-100" text-anchor="end" dominant-baseline="central">10</text>
   <line x1="0" y1="-200" x2="-10" y2="-200" stroke="black"/>
   <line x1="0" y1="-200" x2="4050" y2="-200" stroke="lightgray"/>
   <text x="-20" y="-200" text-anchor="end" dominant-baseline="central">20</text>
   <line x1="0" y1="-300" x2="-10" y2="-300" stroke="black"/>
   <line x1="0" y1="-300" x2="4050" y2="-300" stroke="lightgray"/>
   <text x="-20" y="-300" text-anchor="end" dominant-baseline="central">30</text>
   <line x1="0" y1="-400" x2="-10" y2="-400" stroke="black"/>
   <line x1="0" y1="-400" x2="4050" y2="-400" stroke="lightgray"/>
   <text x="-20" y="-400" text-anchor="end" dominant-baseline="central">40</text>
   <line x1="0" y1="-500" x2="-10" y2="-500" stroke="black"/>
   <line x1="0" y1="-500" x2="4050" y2="-500" stroke="lightgray"/>
   <text x="-20" y="-500" text-anchor="end" dominant-baseline="central">50</text>
   <line x1="0" y1="-600" x2="-10" y2="-600" stroke="black"/>
   <line x1="0" y1="-600" x2="4050" y2="-600" stroke="lightgray"/>
   <text x="-20" y="-600" text-anchor="end" dominant-baseline="central">60</text>
   <line x1="0" y1="-700" x2="-10" y2="-700" stroke="black"/>
   <line x1="0" y1="-700" x2="4050" y2="-700" stroke="lightgray"/>
   <text x="-20" y="-700" text-anchor="end" dominant-baseline="central">70</text>
   <line x1="0" y1="-800" x2="-10" y2="-800" stroke="black"/>
   <line x1="0" y1="-800" x2="4050" y2="-800" stroke="lightgray"/>
   <text x="-20" y="-800" text-anchor="end" dominant-baseline="central">80</text>
   <line x1="0" y1="-900" x2="-10" y2="-900" stroke="black"/>
   <line x1="0" y1="-900" x2="4050" y2="-900" stroke="lightgray"/>
   <text x="-20" y="-900" text-anchor="end" dominant-baseline="central">90</text>
   <line x1="0" y1="-1000" x2="-10" y2="-1000" stroke="black"/>
   <line x1="0" y1="-1000" x2="4050" y2="-1000" stroke="lightgray"/>
   <text x="-20" y="-1000" text-anchor="end" dominant-baseline="central">100</text>
   <rect x="0" y="-0" width="100" height="0" fill="red"/>
   <text x="75" y="50" text-anchor="middle" font-size="smaller">Prologue</text>
   <text x="75" y="-5" text-anchor="middle">0%</text>
   <rect x="150"
         y="-610.3896103896104"
         width="100"
         height="610.3896103896104"
         fill="red"/>
   <text x="225" y="50" text-anchor="middle" font-size="smaller">Pierre</text>
   <text x="225" y="-615.3896103896104" text-anchor="middle">61%</text>
   <rect x="300"
         y="-518.5185185185186"
         width="100"
         height="518.5185185185186"
         fill="red"/>
   <text x="375" y="50" text-anchor="middle" font-size="smaller">Moscow</text>
   <text x="375" y="-523.5185185185186" text-anchor="middle">52%</text>
   <rect x="450"
         y="-540.8163265306123"
         width="100"
         height="540.8163265306123"
         fill="red"/>
   <text x="525" y="50" text-anchor="middle" font-size="smaller">The Private and Intimate Life of the House</text>
   <text x="525" y="-545.8163265306123" text-anchor="middle">54%</text>
   <rect x="600"
         y="-690.909090909091"
         width="100"
         height="690.909090909091"
         fill="red"/>
   <text x="675" y="50" text-anchor="middle" font-size="smaller">Natasha and Bolkonskys</text>
   <text x="675" y="-695.909090909091" text-anchor="middle">69%</text>
   <rect x="750"
         y="-297.8723404255319"
         width="100"
         height="297.8723404255319"
         fill="red"/>
   <text x="825" y="50" text-anchor="middle" font-size="smaller">No One Else</text>
   <text x="825" y="-302.8723404255319" text-anchor="middle">30%</text>
   <rect x="900"
         y="-615.3846153846154"
         width="100"
         height="615.3846153846154"
         fill="red"/>
   <text x="975" y="50" text-anchor="middle" font-size="smaller">The Opera</text>
   <text x="975" y="-620.3846153846154" text-anchor="middle">62%</text>
   <rect x="1050"
         y="-816.6666666666667"
         width="100"
         height="816.6666666666667"
         fill="red"/>
   <text x="1125" y="50" text-anchor="middle" font-size="smaller">Natasha and Anatole</text>
   <text x="1125" y="-821.6666666666667" text-anchor="middle">82%</text>
   <rect x="1200"
         y="-306.1224489795918"
         width="100"
         height="306.1224489795918"
         fill="red"/>
   <text x="1275" y="50" text-anchor="middle" font-size="smaller">The Duel</text>
   <text x="1275" y="-311.1224489795918" text-anchor="middle">31%</text>
   <rect x="1350"
         y="-108.43373493975903"
         width="100"
         height="108.43373493975903"
         fill="red"/>
   <text x="1425" y="50" text-anchor="middle" font-size="smaller">Dust and Ashes</text>
   <text x="1425" y="-113.43373493975903" text-anchor="middle">11%</text>
   <rect x="1500"
         y="-309.5238095238095"
         width="100"
         height="309.5238095238095"
         fill="red"/>
   <text x="1575" y="50" text-anchor="middle" font-size="smaller">Sunday Morning</text>
   <text x="1575" y="-314.5238095238095" text-anchor="middle">31%</text>
   <rect x="1650"
         y="-546.875"
         width="100"
         height="546.875"
         fill="red"/>
   <text x="1725" y="50" text-anchor="middle" font-size="smaller">Charming</text>
   <text x="1725" y="-551.875" text-anchor="middle">55%</text>
   <rect x="1800"
         y="-753.0864197530865"
         width="100"
         height="753.0864197530865"
         fill="red"/>
   <text x="1875" y="50" text-anchor="middle" font-size="smaller">The Ball</text>
   <text x="1875" y="-758.0864197530865" text-anchor="middle">75%</text>
   <rect x="1950"
         y="-394.4954128440367"
         width="100"
         height="394.4954128440367"
         fill="red"/>
   <text x="2025" y="50" text-anchor="middle" font-size="smaller">Letters</text>
   <text x="2025" y="-399.4954128440367" text-anchor="middle">39%</text>
   <rect x="2100"
         y="-933.3333333333333"
         width="100"
         height="933.3333333333333"
         fill="red"/>
   <text x="2175" y="50" text-anchor="middle" font-size="smaller">Sonya and Natasha</text>
   <text x="2175" y="-938.3333333333333" text-anchor="middle">93%</text>
   <rect x="2250"
         y="-590.909090909091"
         width="100"
         height="590.909090909091"
         fill="red"/>
   <text x="2325" y="50" text-anchor="middle" font-size="smaller">Sonya Alone</text>
   <text x="2325" y="-595.909090909091" text-anchor="middle">59%</text>
   <rect x="2400"
         y="-721.6494845360825"
         width="100"
         height="721.6494845360825"
         fill="red"/>
   <text x="2475" y="50" text-anchor="middle" font-size="smaller">Preparations</text>
   <text x="2475" y="-726.6494845360825" text-anchor="middle">72%</text>
   <rect x="2550"
         y="-423.0769230769231"
         width="100"
         height="423.0769230769231"
         fill="red"/>
   <text x="2625" y="50" text-anchor="middle" font-size="smaller">Balaga</text>
   <text x="2625" y="-428.0769230769231" text-anchor="middle">42%</text>
   <rect x="2700"
         y="-555.5555555555555"
         width="100"
         height="555.5555555555555"
         fill="red"/>
   <text x="2775" y="50" text-anchor="middle" font-size="smaller">Abduction</text>
   <text x="2775" y="-560.5555555555555" text-anchor="middle">56%</text>
   <rect x="2850" y="-875" width="100" height="875" fill="red"/>
   <text x="2925" y="50" text-anchor="middle" font-size="smaller">In My House</text>
   <text x="2925" y="-880" text-anchor="middle">88%</text>
   <rect x="3000"
         y="-456.52173913043475"
         width="100"
         height="456.52173913043475"
         fill="red"/>
   <text x="3075" y="50" text-anchor="middle" font-size="smaller">A Call to Pierre</text>
   <text x="3075" y="-461.52173913043475" text-anchor="middle">46%</text>
   <rect x="3150"
         y="-568.1818181818182"
         width="100"
         height="568.1818181818182"
         fill="red"/>
   <text x="3225" y="50" text-anchor="middle" font-size="smaller">Find Anatole</text>
   <text x="3225" y="-573.1818181818182" text-anchor="middle">57%</text>
   <rect x="3300" y="-1000" width="100" height="1000" fill="red"/>
   <text x="3375" y="50" text-anchor="middle" font-size="smaller">Pierre and Anatole</text>
   <text x="3375" y="-1005" text-anchor="middle">100%</text>
   <rect x="3450" y="-1000" width="100" height="1000" fill="red"/>
   <text x="3525" y="50" text-anchor="middle" font-size="smaller">Natasha Very Ill</text>
   <text x="3525" y="-1005" text-anchor="middle">100%</text>
   <rect x="3600"
         y="-771.4285714285713"
         width="100"
         height="771.4285714285713"
         fill="red"/>
   <text x="3675" y="50" text-anchor="middle" font-size="smaller">Pierre and Andrey</text>
   <text x="3675" y="-776.4285714285713" text-anchor="middle">77%</text>
   <rect x="3750"
         y="-974.025974025974"
         width="100"
         height="974.025974025974"
         fill="red"/>
   <text x="3825" y="50" text-anchor="middle" font-size="smaller">Pierre and Natasha</text>
   <text x="3825" y="-979.025974025974" text-anchor="middle">97%</text>
   <rect x="3900"
         y="-975.609756097561"
         width="100"
         height="975.609756097561"
         fill="red"/>
   <text x="3975" y="50" text-anchor="middle" font-size="smaller">The Great Comet of 1812</text>
   <text x="3975" y="-980.609756097561" text-anchor="middle">98%</text>
   <line x1="0"
         y1="0"
         x2="4050"
         y2="0"
         stroke="black"
         stroke-linecap="square"/>
   <line x1="0"
         y1="0"
         x2="0"
         y2="-1000"
         stroke="black"
         stroke-linecap="square"/>
   <text x="2025" y="100" text-anchor="middle" font-size="larger">SONGS</text>
   <text x="-60"
         y="-500"
         writing-mode="tb"
         text-anchor="middle"
         font-size="larger">PERCENTAGE OF SONG LINES THAT COME FROM WAR AND PEACE</text>
</svg>
